<?xml version="1.0" standalone="no"?>
<!DOCTYPE svg PUBLIC "-//W3C//DTD SVG 20010904//EN"
 "http://www.w3.org/TR/2001/REC-SVG-20010904/DTD/svg10.dtd">
<svg version="1.0" xmlns="http://www.w3.org/2000/svg"
 width="576.000000pt" height="576.000000pt" viewBox="0 0 576.000000 576.000000"
 preserveAspectRatio="xMidYMid meet">
<metadata>
Created by potrace 1.11, written by Peter Selinger 2001-2013
</metadata>
<g transform="translate(0.000000,576.000000) scale(0.100000,-0.100000)"
fill="#000000" stroke="none">
<path d="M2856 5019 c9 -15 -16 -19 -131 -20 -79 0 -113 -4 -104 -10 12 -8 12
-9 -1 -7 -20 3 -126 -11 -170 -22 -19 -5 -46 -11 -60 -14 -14 -2 -25 -5 -25
-6 0 -1 -9 -3 -20 -5 -31 -6 -202 -63 -244 -81 -20 -9 -45 -19 -56 -24 -49
-18 -236 -117 -298 -156 -37 -24 -72 -44 -77 -44 -6 0 -10 -4 -10 -9 0 -5 -15
-19 -33 -30 -18 -11 -42 -28 -54 -38 -11 -10 -37 -31 -58 -48 -20 -16 -57 -49
-80 -72 -24 -24 -49 -43 -56 -43 -7 0 -10 -3 -6 -6 3 -3 -11 -23 -31 -44 -60
-61 -105 -113 -136 -155 -17 -22 -33 -42 -36 -45 -35 -29 -221 -359 -259 -460
-26 -71 -72 -204 -75 -219 -2 -9 -6 -23 -9 -31 -8 -22 -28 -110 -33 -145 -11
-74 -27 -141 -36 -152 -7 -9 -7 -17 1 -26 6 -8 8 -17 4 -21 -4 -3 -7 -45 -8
-92 -1 -57 -5 -88 -14 -93 -13 -9 -12 -42 3 -52 5 -4 9 -47 10 -97 0 -50 4
-88 8 -86 3 2 5 -4 3 -13 -2 -10 -4 -18 -6 -18 -1 0 -2 -14 -3 -32 -1 -18 1
-30 6 -27 5 3 5 10 2 16 -4 6 -2 8 4 4 6 -3 10 -14 10 -24 -1 -39 43 -242 53
-242 5 0 4 -12 -1 -26 -6 -14 -6 -23 -1 -20 10 7 21 -17 21 -45 0 -10 5 -19
11 -19 5 0 8 -4 5 -9 -11 -17 123 -325 174 -401 10 -14 43 -64 74 -112 50 -77
76 -112 147 -198 133 -161 367 -355 552 -460 32 -18 54 -36 50 -42 -3 -6 -1
-8 4 -5 6 4 53 -13 104 -36 52 -24 110 -50 129 -57 19 -7 40 -17 45 -21 6 -3
26 -10 45 -14 19 -4 49 -13 65 -20 41 -18 166 -47 173 -41 3 3 10 2 16 -3 6
-5 27 -12 46 -15 19 -3 53 -8 75 -12 22 -3 42 -10 45 -14 3 -5 57 -9 120 -9
66 -1 116 -5 118 -11 5 -13 45 -13 59 1 7 7 91 10 248 10 131 -1 236 2 232 5
-3 3 -68 5 -144 5 -145 -2 -167 2 -68 13 94 10 105 12 195 34 129 31 399 126
435 153 6 4 30 18 55 31 97 52 217 126 239 146 7 7 20 11 28 8 8 -3 12 -2 9 3
-3 4 30 36 74 70 44 35 118 102 166 149 48 48 91 86 96 84 5 -1 7 2 4 6 -3 5
6 22 20 38 103 118 233 320 312 486 41 86 100 242 108 287 3 14 7 28 10 33 3
4 7 16 9 25 2 10 10 47 19 83 15 67 20 90 31 172 5 32 11 46 19 41 6 -4 5 1
-3 10 -10 13 -10 17 -1 17 10 0 10 3 1 14 -9 11 -9 16 0 21 8 6 7 10 -2 16 -8
5 -9 9 -4 9 6 0 11 28 11 66 1 36 6 69 11 73 12 8 13 44 1 52 -5 3 -10 46 -11
95 -1 49 -6 92 -12 96 -6 5 -5 8 3 8 6 0 12 5 12 11 0 5 -4 7 -10 4 -5 -3 -10
1 -10 10 0 9 5 13 11 9 6 -3 4 4 -4 17 -8 13 -18 49 -22 79 -9 66 -8 64 -38
185 -22 86 -58 198 -68 210 -5 5 -9 15 -9 22 0 8 -20 55 -45 107 -24 51 -49
103 -55 117 -5 13 -16 33 -22 43 -7 11 -44 67 -82 125 -211 323 -510 586 -856
753 -58 27 -109 51 -115 53 -5 1 -23 8 -40 15 -90 37 -264 87 -375 106 -25 4
-48 9 -52 10 -5 1 -25 2 -45 3 -32 2 -35 4 -18 12 15 6 7 8 -27 5 -27 -1 -48
0 -48 3 0 3 -38 6 -85 5 -47 0 -85 3 -85 7 0 3 -13 9 -29 11 -17 2 -28 1 -25
-3z m-562 -646 c-24 -58 -44 -108 -44 -109 0 -2 -8 -4 -18 -4 -20 0 -30 -49
-9 -51 6 -1 21 -2 32 -3 19 -1 297 -145 340 -176 6 -4 46 -27 90 -50 143 -78
170 -96 167 -113 -2 -13 5 -17 28 -17 16 0 29 3 29 8 -4 22 4 34 29 44 15 7
34 17 42 23 8 7 49 30 90 52 41 22 91 49 110 60 122 69 150 83 150 76 0 -4 6
0 13 9 15 20 136 83 162 84 11 1 25 2 31 3 18 2 12 51 -7 51 -9 0 -22 14 -29
33 -12 30 -34 83 -65 152 -8 16 -12 32 -9 36 4 7 89 -18 130 -38 10 -6 51 -25
89 -44 123 -60 263 -154 369 -249 90 -80 226 -233 226 -253 0 -8 -65 -5 -195
8 -22 2 -41 8 -43 14 -2 6 -16 11 -31 11 -28 0 -33 -14 -17 -50 3 -9 -5 -72
-19 -140 -15 -69 -28 -136 -31 -150 -2 -14 -7 -36 -10 -50 -3 -14 -7 -32 -9
-40 -39 -223 -51 -275 -65 -289 -24 -24 -19 -44 14 -52 16 -5 49 -28 75 -52
49 -47 69 -66 230 -216 55 -51 98 -98 94 -104 -3 -5 -1 -7 5 -3 17 10 102 -73
102 -101 0 -18 5 -23 25 -23 18 0 25 5 25 19 0 11 29 43 68 77 37 32 75 66 85
76 41 41 47 12 31 -137 -15 -128 -44 -275 -55 -275 -4 0 -6 -8 -5 -17 2 -10
-1 -25 -5 -33 -4 -8 -15 -40 -25 -70 -34 -114 -188 -400 -215 -400 -11 0 -16
12 -23 55 -3 17 -12 57 -20 90 -8 33 -12 78 -9 101 5 37 3 41 -17 39 -12 -1
-25 -6 -29 -13 -3 -6 -20 -13 -36 -16 -33 -6 -415 -53 -485 -60 -91 -10 -145
-18 -154 -23 -5 -4 -7 0 -4 8 4 10 -3 14 -24 14 -26 1 -29 -2 -27 -30 2 -35 0
-40 -59 -165 -25 -52 -46 -97 -47 -100 -4 -12 -26 -62 -72 -160 -27 -58 -60
-129 -73 -157 -16 -36 -29 -53 -42 -53 -13 0 -18 -7 -18 -25 0 -24 6 -27 45
-25 6 1 58 -28 155 -85 l65 -39 -32 -13 c-17 -7 -46 -15 -64 -18 -18 -3 -35
-8 -39 -10 -3 -2 -48 -11 -100 -21 -110 -19 -374 -27 -470 -13 -131 18 -244
42 -292 62 l-33 13 105 63 c69 40 114 61 130 59 21 -3 26 2 28 24 3 22 -1 28
-16 28 -17 0 -46 45 -47 72 0 4 -6 13 -12 20 -7 6 -13 16 -13 21 0 5 -13 37
-29 71 -16 33 -55 115 -86 181 -98 205 -111 239 -108 271 2 26 -1 30 -20 30
-12 -1 -25 -5 -29 -10 -5 -8 -208 12 -393 39 -16 2 -54 6 -82 9 -78 9 -156 18
-173 22 -8 1 -18 3 -22 3 -5 1 -8 7 -8 15 0 9 -8 12 -26 8 -24 -4 -26 -8 -21
-39 5 -31 -21 -178 -41 -232 -8 -23 -9 -22 -34 11 -31 41 -138 229 -138 243 0
5 -7 24 -16 40 -40 76 -103 296 -119 413 -3 20 -7 51 -10 67 -9 62 -8 159 1
162 5 2 26 -11 46 -29 20 -18 59 -53 88 -77 36 -31 50 -49 47 -63 -4 -14 1
-18 24 -18 24 0 29 4 29 23 0 15 16 38 45 64 49 44 116 106 304 283 140 131
138 130 168 130 17 0 21 5 18 22 -3 12 -10 25 -16 29 -7 4 -9 14 -6 24 4 9 3
14 -3 10 -6 -3 -10 -3 -10 2 0 4 -18 102 -40 216 -22 115 -42 220 -45 235 -2
15 -11 61 -19 102 -9 45 -11 79 -5 85 5 5 9 17 9 27 0 13 -8 18 -29 18 -16 0
-31 -5 -33 -12 -5 -13 -11 -14 -138 -23 -55 -4 -100 -3 -100 1 0 10 74 105
107 137 16 15 37 35 47 46 10 11 23 18 29 14 6 -3 7 -1 4 4 -7 11 49 67 118
118 22 17 42 32 45 35 16 18 68 48 74 43 3 -3 6 -1 6 5 0 15 178 114 270 150
95 38 103 40 112 35 4 -2 -13 -51 -38 -110z"/>
<path d="M2850 3548 c0 -17 -17 -35 -63 -65 -34 -24 -129 -92 -212 -153 -82
-61 -157 -113 -165 -117 -8 -4 -21 -13 -28 -20 -37 -36 -141 -102 -166 -105
-24 -2 -30 -8 -30 -29 -1 -17 3 -25 10 -22 16 6 34 -28 37 -66 1 -16 5 -27 8
-26 3 2 51 -137 107 -309 78 -240 101 -320 96 -344 -4 -18 -3 -32 2 -33 5 0
19 -2 32 -3 14 -2 21 2 18 9 -3 9 90 12 377 12 316 0 386 -2 404 -14 32 -21
46 -8 39 36 -4 22 -1 46 8 63 8 15 17 42 21 60 4 18 10 38 13 43 4 6 7 16 8
22 2 13 90 285 101 313 4 8 7 17 7 20 8 44 73 218 80 217 6 -1 12 10 14 26 3
24 0 27 -25 27 -17 0 -50 17 -85 43 -32 23 -102 73 -155 112 -54 38 -102 73
-108 77 -25 20 -92 69 -189 138 -80 57 -104 79 -100 93 4 14 -1 17 -25 17 -25
0 -31 -4 -31 -22z"/>
<path d="M1695 5001 c-3 -5 -1 -12 4 -15 13 -8 42 4 35 15 -7 12 -31 12 -39 0z"/>
<path d="M1813 4998 c-2 -5 37 -8 86 -8 50 0 91 3 91 8 0 4 -39 7 -86 7 -47 0
-88 -3 -91 -7z"/>
<path d="M2020 5000 c-24 -8 -23 -8 8 -9 20 -1 31 3 27 9 -3 6 -7 10 -8 9 -1
-1 -13 -5 -27 -9z"/>
<path d="M2354 4999 c-3 -5 6 -9 20 -9 31 0 34 6 6 13 -11 3 -23 1 -26 -4z"/>
<path d="M2413 4998 c-2 -5 10 -8 26 -8 17 0 31 3 31 8 0 4 -12 7 -26 7 -14 0
-28 -3 -31 -7z"/>
<path d="M2515 5000 c-3 -5 1 -10 10 -10 9 0 13 5 10 10 -3 6 -8 10 -10 10 -2
0 -7 -4 -10 -10z"/>
<path d="M2565 5000 c-18 -8 -17 -9 8 -9 16 -1 26 3 22 9 -3 6 -7 10 -8 9 -1
0 -11 -4 -22 -9z"/>
<path d="M3432 4999 c-9 -4 52 -7 137 -8 85 0 152 2 149 4 -8 8 -266 11 -286
4z"/>
<path d="M3995 4999 c-30 -7 -30 -7 8 -9 20 -2 42 -3 49 -4 6 -1 13 5 15 11 5
14 -17 14 -72 2z"/>
<path d="M1763 4993 c9 -2 23 -2 30 0 6 3 -1 5 -18 5 -16 0 -22 -2 -12 -5z"/>
<path d="M2078 4993 c7 -3 16 -2 19 1 4 3 -2 6 -13 5 -11 0 -14 -3 -6 -6z"/>
<path d="M2118 4993 c6 -2 18 -2 25 0 6 3 1 5 -13 5 -14 0 -19 -2 -12 -5z"/>
<path d="M2188 4993 c6 -2 18 -2 25 0 6 3 1 5 -13 5 -14 0 -19 -2 -12 -5z"/>
<path d="M2238 4993 c7 -3 16 -2 19 1 4 3 -2 6 -13 5 -11 0 -14 -3 -6 -6z"/>
<path d="M2278 4993 c6 -2 18 -2 25 0 6 3 1 5 -13 5 -14 0 -19 -2 -12 -5z"/>
<path d="M3208 4993 c7 -3 16 -2 19 1 4 3 -2 6 -13 5 -11 0 -14 -3 -6 -6z"/>
<path d="M3263 4993 c15 -2 37 -2 50 0 12 2 0 4 -28 4 -27 0 -38 -2 -22 -4z"/>
<path d="M3768 4993 c7 -3 16 -2 19 1 4 3 -2 6 -13 5 -11 0 -14 -3 -6 -6z"/>
<path d="M3808 4993 c7 -3 16 -2 19 1 4 3 -2 6 -13 5 -11 0 -14 -3 -6 -6z"/>
<path d="M3878 4993 c6 -2 18 -2 25 0 6 3 1 5 -13 5 -14 0 -19 -2 -12 -5z"/>
<path d="M4993 4059 c-12 -12 -7 -39 7 -39 12 0 19 25 11 38 -5 9 -10 9 -18 1z"/>
<path d="M745 4051 c-7 -12 12 -24 25 -16 11 7 4 25 -10 25 -5 0 -11 -4 -15
-9z"/>
<path d="M4994 3985 c2 -35 11 -39 12 -4 1 16 -2 29 -6 29 -4 0 -6 -11 -6 -25z"/>
<path d="M756 3967 c3 -10 9 -15 12 -12 3 3 0 11 -7 18 -10 9 -11 8 -5 -6z"/>
<path d="M750 3925 c0 -8 4 -15 8 -15 5 0 9 7 9 15 0 8 -4 15 -9 15 -4 0 -8
-7 -8 -15z"/>
<path d="M753 3885 c0 -8 4 -15 9 -15 4 0 8 4 8 9 0 6 -4 12 -8 15 -5 3 -9 -1
-9 -9z"/>
<path d="M4997 3835 c-4 -8 -3 -16 1 -19 4 -3 9 4 9 15 2 23 -3 25 -10 4z"/>
<path d="M753 3790 c0 -28 3 -50 6 -50 8 0 7 87 0 94 -3 3 -5 -17 -6 -44z"/>
<path d="M753 3710 c1 -21 10 -18 13 5 1 8 -2 15 -6 15 -5 0 -8 -9 -7 -20z"/>
<path d="M4999 3723 c0 -5 -2 -16 -4 -26 -2 -11 -1 -16 3 -13 8 8 14 46 7 46
-3 0 -5 -3 -6 -7z"/>
<path d="M4990 3641 c0 -6 4 -12 8 -15 5 -3 9 1 9 9 0 8 -4 15 -9 15 -4 0 -8
-4 -8 -9z"/>
<path d="M753 3609 c-2 -23 3 -25 10 -4 4 8 3 16 -1 19 -4 3 -9 -4 -9 -15z"/>
<path d="M4993 3595 c0 -8 4 -15 9 -15 4 0 8 7 8 15 0 8 -4 15 -8 15 -5 0 -9
-7 -9 -15z"/>
<path d="M4999 3568 c-5 -14 -4 -58 1 -58 4 0 7 14 6 30 -1 26 -3 36 -7 28z"/>
<path d="M753 3485 c0 -8 4 -12 9 -9 5 3 6 10 3 15 -9 13 -12 11 -12 -6z"/>
<path d="M4995 3460 c-1 -21 1 -37 4 -34 8 8 11 74 3 74 -4 0 -7 -18 -7 -40z"/>
<path d="M753 3445 c0 -8 4 -12 9 -9 5 3 6 10 3 15 -9 13 -12 11 -12 -6z"/>
<path d="M759 3418 c-4 -12 -5 -57 0 -53 6 6 10 55 4 55 -1 0 -3 -1 -4 -2z"/>
<path d="M4999 3403 c-5 -38 -5 -64 0 -67 3 -2 7 13 7 35 1 21 -1 39 -2 39 -2
0 -4 -3 -5 -7z"/>
<path d="M753 3325 c0 -14 3 -25 6 -25 4 0 7 11 7 25 0 14 -3 25 -7 25 -3 0
-6 -11 -6 -25z"/>
<path d="M750 3275 c0 -8 4 -15 10 -15 5 0 7 7 4 15 -4 8 -8 15 -10 15 -2 0
-4 -7 -4 -15z"/>
<path d="M754 3220 c-1 -16 1 -30 5 -30 3 0 7 14 7 30 1 17 -1 30 -5 30 -3 0
-7 -13 -7 -30z"/>
<path d="M4999 3243 c0 -5 -2 -16 -4 -26 -2 -11 -1 -16 3 -13 8 8 14 46 7 46
-3 0 -5 -3 -6 -7z"/>
<path d="M4990 3181 c0 -6 4 -12 8 -15 5 -3 9 1 9 9 0 8 -4 15 -9 15 -4 0 -8
-4 -8 -9z"/>
<path d="M4996 2565 c4 -8 8 -15 10 -15 2 0 4 7 4 15 0 8 -4 15 -10 15 -5 0
-7 -7 -4 -15z"/>
<path d="M753 2529 c-2 -23 3 -25 10 -4 4 8 3 16 -1 19 -4 3 -9 -4 -9 -15z"/>
<path d="M4996 2525 c4 -8 8 -15 10 -15 2 0 4 7 4 15 0 8 -4 15 -10 15 -5 0
-7 -7 -4 -15z"/>
<path d="M4995 2470 c-3 -5 -1 -10 4 -10 6 0 11 5 11 10 0 6 -2 10 -4 10 -3 0
-8 -4 -11 -10z"/>
<path d="M753 2435 c0 -8 4 -12 9 -9 5 3 6 10 3 15 -9 13 -12 11 -12 -6z"/>
<path d="M4999 2448 c-4 -9 -3 -126 1 -122 5 6 8 124 3 124 -2 0 -4 -1 -4 -2z"/>
<path d="M753 2369 c-2 -23 3 -25 10 -4 4 8 3 16 -1 19 -4 3 -9 -4 -9 -15z"/>
<path d="M753 2285 c0 -8 4 -15 9 -15 4 0 8 4 8 9 0 6 -4 12 -8 15 -5 3 -9 -1
-9 -9z"/>
<path d="M4997 2275 c-4 -8 -3 -16 1 -19 4 -3 9 4 9 15 2 23 -3 25 -10 4z"/>
<path d="M754 2215 c0 -13 3 -22 7 -19 8 4 6 30 -2 38 -3 3 -5 -5 -5 -19z"/>
<path d="M4995 2231 c-3 -5 -2 -12 3 -15 5 -3 9 1 9 9 0 17 -3 19 -12 6z"/>
<path d="M750 2165 c0 -8 4 -15 8 -15 5 0 9 7 9 15 0 8 -4 15 -9 15 -4 0 -8
-7 -8 -15z"/>
<path d="M753 2125 c0 -8 4 -15 9 -15 4 0 8 4 8 9 0 6 -4 12 -8 15 -5 3 -9 -1
-9 -9z"/>
<path d="M4997 2115 c-4 -8 -3 -16 1 -19 4 -3 9 4 9 15 2 23 -3 25 -10 4z"/>
<path d="M749 2067 c5 -5 7 -17 4 -26 -4 -9 -3 -13 1 -10 14 13 14 46 0 46 -9
0 -11 -4 -5 -10z"/>
<path d="M4990 2041 c0 -6 4 -12 8 -15 5 -3 9 1 9 9 0 8 -4 15 -9 15 -4 0 -8
-4 -8 -9z"/>
<path d="M4993 1995 c0 -8 4 -15 9 -15 4 0 8 7 8 15 0 8 -4 15 -8 15 -5 0 -9
-7 -9 -15z"/>
<path d="M4999 1968 c-6 -20 -6 -39 0 -42 4 -3 7 6 7 20 0 20 -4 32 -7 22z"/>
<path d="M753 1929 c-2 -23 3 -25 10 -4 4 8 3 16 -1 19 -4 3 -9 -4 -9 -15z"/>
<path d="M753 1885 c0 -8 4 -12 9 -9 5 3 6 10 3 15 -9 13 -12 11 -12 -6z"/>
<path d="M4990 1881 c0 -6 4 -12 8 -15 5 -3 9 1 9 9 0 8 -4 15 -9 15 -4 0 -8
-4 -8 -9z"/>
<path d="M753 1845 c0 -8 4 -12 9 -9 5 3 6 10 3 15 -9 13 -12 11 -12 -6z"/>
<path d="M4993 1835 c0 -8 4 -15 9 -15 4 0 8 7 8 15 0 8 -4 15 -8 15 -5 0 -9
-7 -9 -15z"/>
<path d="M4999 1808 c-1 -2 -2 -21 -3 -43 -1 -22 -5 -45 -9 -52 -9 -14 9 -27
23 -18 7 4 7 12 2 18 -4 7 -8 31 -7 55 1 35 -1 51 -6 40z"/>
<path d="M753 1775 c0 -8 4 -12 9 -9 5 3 6 10 3 15 -9 13 -12 11 -12 -6z"/>
<path d="M753 1736 c3 -8 1 -17 -6 -19 -9 -3 -9 -8 1 -18 10 -11 15 -10 30 5
9 11 11 16 5 12 -12 -6 -18 5 -14 27 0 4 -4 7 -10 7 -6 0 -9 -6 -6 -14z"/>
<path d="M1696 765 c-8 -21 -1 -21 99 -15 l90 7 -73 1 c-40 1 -82 6 -92 12
-13 7 -19 6 -24 -5z"/>
<path d="M2058 758 c-13 -3 51 -6 141 -7 90 -1 162 1 159 4 -8 8 -273 11 -300
3z"/>
<path d="M3800 760 l-125 -6 138 -2 c75 -1 137 0 137 2 0 9 -33 11 -150 6z"/>
<path d="M4000 760 l-45 -7 43 -3 c23 -2 47 -3 52 -4 12 -1 15 18 3 20 -4 0
-28 -2 -53 -6z"/>
<path d="M1903 753 c9 -2 25 -2 35 0 9 3 1 5 -18 5 -19 0 -27 -2 -17 -5z"/>
<path d="M1998 753 c6 -2 18 -2 25 0 6 3 1 5 -13 5 -14 0 -19 -2 -12 -5z"/>
<path d="M2383 753 c9 -2 25 -2 35 0 9 3 1 5 -18 5 -19 0 -27 -2 -17 -5z"/>
<path d="M2478 753 c6 -2 18 -2 25 0 6 3 1 5 -13 5 -14 0 -19 -2 -12 -5z"/>
<path d="M2563 753 c9 -2 23 -2 30 0 6 3 -1 5 -18 5 -16 0 -22 -2 -12 -5z"/>
<path d="M3418 753 c12 -2 30 -2 40 0 9 3 -1 5 -23 4 -22 0 -30 -2 -17 -4z"/>
<path d="M3523 753 c9 -2 23 -2 30 0 6 3 -1 5 -18 5 -16 0 -22 -2 -12 -5z"/>
<path d="M3593 753 c15 -2 39 -2 55 0 15 2 2 4 -28 4 -30 0 -43 -2 -27 -4z"/>
</g>
</svg>
